<?xml version="1.0" encoding="UTF-8" standalone="no"?>
<svg
   xmlns:dc="http://purl.org/dc/elements/1.1/"
   xmlns:cc="http://creativecommons.org/ns#"
   xmlns:rdf="http://www.w3.org/1999/02/22-rdf-syntax-ns#"
   xmlns:svg="http://www.w3.org/2000/svg"
   xmlns="http://www.w3.org/2000/svg"
   width="50"
   height="50"
   viewBox="0 0 49.999997 49.999997"
   id="svg2"
   version="1.1">
  <defs
     id="defs4" />
  <metadata
     id="metadata7">
    <rdf:RDF>
      <cc:Work
         rdf:about="">
        <dc:format>image/svg+xml</dc:format>
        <dc:type
           rdf:resource="http://purl.org/dc/dcmitype/StillImage" />
        <dc:title></dc:title>
      </cc:Work>
    </rdf:RDF>
  </metadata>
  <g
     style="fill:#ffffff"
     id="layer1"
     transform="matrix(0.55626282,0,0,0.55626282,-2.6764014,-546.39262)">
    <path
       style="fill:#ffffff;fill-opacity:1"
       d="m 39.906256,1050.4813 c -6.399134,-0.7321 -16.391256,-3.5109 -20.972506,-5.8324 -10.6488136,-5.3962 -16.1396316,-14.0912 -13.4413186,-21.2852 2.144359,-5.7171 9.0149376,-11.5396 17.5388276,-14.8635 25.149114,-9.80672 62.014008,-3.1506 69.870607,12.6156 2.463117,4.9428 2.399097,8.4255 -0.23947,13.026 -3.571889,6.2278 -10.520479,10.7694 -21.221465,13.8704 -10.034709,2.9079 -20.522335,3.7291 -31.534675,2.4691 z m -15.665849,-12.7493 0.588781,-2.9883 4.550253,-0.4002 c 2.50264,-0.2201 5.183067,-0.7447 5.956504,-1.1659 5.800571,-3.1585 7.570626,-11.9957 2.989907,-14.9275 -0.991446,-0.6345 -4.11075,-1.1217 -8.34146,-1.3027 l -6.757804,-0.2891 -2.207039,11.5744 c -1.213871,6.3659 -2.207041,11.7798 -2.207041,12.031 0,0.2511 1.088803,0.4566 2.41956,0.4566 2.285433,0 2.452198,-0.1657 3.008339,-2.9883 z m 1.634033,-7.6429 c 0.01687,-0.5337 0.432653,-2.8688 0.923954,-5.1891 l 0.893275,-4.2188 3.063144,0.145 c 1.684729,0.08 3.524154,0.6061 4.08761,1.1695 1.333549,1.3336 0.614954,5.4223 -1.249509,7.1096 -1.775275,1.6066 -7.762295,2.3697 -7.718474,0.9838 z m 38.821588,7.3842 0.568767,-2.8955 4.827033,-0.3454 c 5.940988,-0.425 8.594968,-2.1039 10.273292,-6.4985 1.555467,-4.0729 0.933701,-7.6744 -1.613032,-9.3432 -1.447664,-0.9486 -3.384464,-1.2251 -8.580421,-1.2251 l -6.710725,0 -1.873628,9.4922 c -1.030495,5.2207 -2.076938,10.5407 -2.325429,11.8222 l -0.451803,2.33 2.65859,-0.2207 c 2.500818,-0.2075 2.692343,-0.3924 3.227356,-3.116 z m 1.673593,-7.1443 c -0.391586,-0.6336 1.290892,-9.1599 1.934509,-9.8035 0.237245,-0.2372 1.934036,-0.141 3.770645,0.2137 2.967654,0.5733 3.364863,0.8687 3.569072,2.6543 0.352448,3.0818 -1.132144,5.8861 -3.565166,6.7343 -2.52478,0.8801 -5.230535,0.9755 -5.70906,0.2012 z m -20.714306,1.2506 c 0.286165,-1.3535 0.872361,-4.2802 1.302658,-6.5039 l 0.782358,-4.0429 3.465775,0 c 3.316262,0 3.465032,0.083 3.448586,1.9336 -0.01515,1.7047 -0.412633,3.9242 -1.770726,9.8876 -0.342566,1.5042 -0.171052,1.6095 2.290844,1.4063 l 2.661132,-0.2197 1.2917,-6.5339 c 1.163326,-5.8845 1.185528,-6.6959 0.223401,-8.1643 -1.121517,-1.7116 -3.773115,-2.5284 -8.208631,-2.5284 l -2.650563,0 0.585923,-2.5979 c 0.725129,-3.2151 0.425707,-3.7302 -2.168367,-3.7302 -2.353041,0 -1.950849,-1.1022 -4.804061,13.1659 -1.100043,5.501 -1.818922,10.183 -1.597509,10.4044 0.221412,0.2214 1.353106,0.3085 2.514874,0.1935 1.784789,-0.1767 2.19298,-0.5907 2.632606,-2.6701 z"
       id="path3401" />
  </g>
</svg>
